<svg viewBox="0 0 32 32" fill="none" xmlns="http://www.w3.org/2000/svg">
<path d="M8.66667 12.6667L13.3333 8.66667M18.6667 7.33333L22.6667 9.33333M24.6667 13.3333L21.3333 22.6667M18 23.3333L8.66667 16.6667M13.3333 6.66667C13.3333 7.37391 13.6143 8.05219 14.1144 8.55229C14.6145 9.05238 15.2928 9.33333 16 9.33333C16.7072 9.33333 17.3855 9.05238 17.8856 8.55229C18.3857 8.05219 18.6667 7.37391 18.6667 6.66667C18.6667 5.95942 18.3857 5.28115 17.8856 4.78105C17.3855 4.28095 16.7072 4 16 4C15.2928 4 14.6145 4.28095 14.1144 4.78105C13.6143 5.28115 13.3333 5.95942 13.3333 6.66667ZM22.6667 10.6667C22.6667 11.3739 22.9476 12.0522 23.4477 12.5523C23.9478 13.0524 24.6261 13.3333 25.3333 13.3333C26.0406 13.3333 26.7189 13.0524 27.219 12.5523C27.719 12.0522 28 11.3739 28 10.6667C28 9.95942 27.719 9.28115 27.219 8.78105C26.7189 8.28095 26.0406 8 25.3333 8C24.6261 8 23.9478 8.28095 23.4477 8.78105C22.9476 9.28115 22.6667 9.95942 22.6667 10.6667ZM4 14.6667C4 15.3739 4.28095 16.0522 4.78105 16.5523C5.28115 17.0524 5.95942 17.3333 6.66667 17.3333C7.37391 17.3333 8.05219 17.0524 8.55229 16.5523C9.05238 16.0522 9.33333 15.3739 9.33333 14.6667C9.33333 13.9594 9.05238 13.2811 8.55229 12.781C8.05219 12.281 7.37391 12 6.66667 12C5.95942 12 5.28115 12.281 4.78105 12.781C4.28095 13.2811 4 13.9594 4 14.6667ZM17.3333 25.3333C17.3333 26.0406 17.6143 26.7189 18.1144 27.219C18.6145 27.719 19.2928 28 20 28C20.7072 28 21.3855 27.719 21.8856 27.219C22.3857 26.7189 22.6667 26.0406 22.6667 25.3333C22.6667 24.6261 22.3857 23.9478 21.8856 23.4477C21.3855 22.9476 20.7072 22.6667 20 22.6667C19.2928 22.6667 18.6145 22.9476 18.1144 23.4477C17.6143 23.9478 17.3333 24.6261 17.3333 25.3333Z" stroke="currentColor" stroke-width="var(--icon-stroke-width)" stroke-linecap="round" stroke-linejoin="round"/>
</svg>
