<svg width="16" height="16" viewBox="0 0 16 16" fill="none" xmlns="http://www.w3.org/2000/svg">
<path d="M4.25 3.875C4.03906 3.875 3.875 4.0625 3.875 4.25V11.75C3.875 11.9609 4.03906 12.125 4.25 12.125H11.75C11.9375 12.125 12.125 11.9609 12.125 11.75V4.25C12.125 4.0625 11.9375 3.875 11.75 3.875H4.25ZM2.75 4.25C2.75 3.42969 3.40625 2.75 4.25 2.75H11.75C12.5703 2.75 13.25 3.42969 13.25 4.25V11.75C13.25 12.5938 12.5703 13.25 11.75 13.25H4.25C3.40625 13.25 2.75 12.5938 2.75 11.75V4.25ZM6.10156 6.10156C6.3125 5.89062 6.66406 5.89062 6.875 6.10156L7.97656 7.20312L9.07812 6.10156C9.3125 5.89062 9.66406 5.89062 9.875 6.10156C10.1094 6.33594 10.1094 6.6875 9.875 6.89844L8.77344 8L9.875 9.10156C10.1094 9.33594 10.1094 9.6875 9.875 9.89844C9.66406 10.1328 9.3125 10.1328 9.07812 9.89844L7.97656 8.79688L6.875 9.89844C6.66406 10.1328 6.3125 10.1328 6.10156 9.89844C5.86719 9.6875 5.86719 9.33594 6.10156 9.10156L7.20312 8L6.10156 6.89844C5.86719 6.6875 5.86719 6.33594 6.10156 6.10156Z" fill="currentColor"/>
</svg>
